<?xml version="1.0" standalone="no"?>
<!DOCTYPE svg PUBLIC "-//W3C//DTD SVG 20010904//EN"
 "http://www.w3.org/TR/2001/REC-SVG-20010904/DTD/svg10.dtd">
<svg version="1.0" xmlns="http://www.w3.org/2000/svg"
 width="261.000000pt" height="97.000000pt" viewBox="0 0 261.000000 97.000000"
 preserveAspectRatio="xMidYMid meet">
<metadata>
Created by potrace 1.15, written by Peter Selinger 2001-2017
</metadata>
<g transform="translate(0.000000,97.000000) scale(0.100000,-0.100000)"
fill="#000000" stroke="none">
<path d="M2323 722 c-7 -5 -41 -88 -74 -185 -48 -137 -59 -181 -50 -190 25
-25 47 11 103 174 31 90 57 174 57 187 1 22 -14 28 -36 14z"/>
<path d="M2453 722 c-7 -5 -41 -88 -74 -185 -48 -137 -59 -181 -50 -190 25
-25 47 11 103 174 31 90 57 174 57 187 1 22 -14 28 -36 14z"/>
<path d="M246 679 c-15 -17 -38 -53 -51 -78 -13 -25 -46 -84 -74 -130 -50 -82
-64 -131 -38 -131 23 0 35 15 78 90 70 125 68 125 62 16 -5 -83 -4 -96 11
-102 23 -9 38 7 108 108 34 48 63 86 65 84 2 -2 -1 -43 -7 -90 -13 -92 -10
-116 14 -116 25 0 46 42 46 90 0 26 7 88 16 138 19 113 17 148 -11 145 -23 -2
-23 -2 -111 -138 l-65 -100 7 80 c12 134 11 159 -7 163 -9 2 -28 -11 -43 -29z"/>
<path d="M1666 679 c-15 -17 -38 -53 -51 -78 -13 -25 -46 -84 -74 -130 -50
-82 -64 -131 -38 -131 23 0 35 15 78 90 70 125 68 125 62 16 -5 -83 -4 -96 11
-102 23 -9 38 7 108 108 34 48 63 86 65 84 2 -2 -1 -43 -7 -90 -13 -92 -10
-116 14 -116 25 0 46 42 46 90 0 26 7 88 16 138 19 113 17 148 -11 145 -23 -2
-23 -2 -111 -138 l-65 -100 7 80 c12 134 11 159 -7 163 -9 2 -28 -11 -43 -29z"/>
<path d="M624 586 c-65 -29 -132 -139 -117 -194 7 -27 50 -52 91 -52 60 0 132
37 132 68 0 11 -7 13 -32 7 -48 -12 -121 -12 -125 0 -2 6 27 22 64 35 86 32
123 62 123 101 0 22 -6 32 -26 39 -34 13 -73 12 -110 -4z"/>
<path d="M879 577 c-27 -14 -57 -42 -77 -72 -27 -40 -32 -56 -30 -94 2 -37 8
-48 30 -61 23 -12 33 -13 59 -3 42 16 48 9 22 -25 l-20 -27 -412 -3 c-403 -2
-411 -3 -411 -22 0 -20 7 -20 331 -20 280 0 333 -2 345 -15 20 -19 84 -19 131
0 30 13 143 15 799 15 757 0 764 0 764 20 0 20 -7 20 -744 20 l-745 0 35 78
c19 42 47 103 62 135 l26 59 -24 19 c-34 25 -88 24 -141 -4z"/>
<path d="M1130 568 c-148 -89 -132 -269 19 -217 23 8 35 8 45 0 27 -22 44 -2
48 57 2 32 14 79 28 106 l23 49 -22 19 c-34 27 -80 22 -141 -14z"/>
<path d="M2030 568 c-148 -89 -132 -269 19 -217 23 8 35 8 45 0 27 -22 44 -2
48 57 2 32 14 79 28 106 l23 49 -22 19 c-34 27 -80 22 -141 -14z"/>
</g>
</svg>
